IDResults
version=1
nRows=96
nColumns=3
inDegrees=yes

Units are S.I. units (second, meters, Newtons, ...)
If the header above contains a line with 'inDegrees', this indicates whether rotational values are in degrees (yes) or radians (no).

endheader
time	r_shoulder_elev	r_elbow_flex
     27.18300000	      5.51155958	    154.24652899
     27.19200000	      5.50223247	    154.23991331
     27.20000000	      5.49546696	    154.23381874
     27.20800000	      5.48877863	    154.22770161
     27.21700000	      5.48262505	    154.21957637
     27.22500000	      5.47760035	    154.21050541
     27.23300000	      5.47204900	    154.20032277
     27.24200000	      5.46827313	    154.18713743
     27.25000000	      5.46433804	    154.17406353
     27.25800000	      5.46280048	    154.15883150
     27.26700000	      5.45942851	    154.14370838
     27.27500000	      5.45704672	    154.13054402
     27.28300000	      5.45734735	    154.11709767
     27.29200000	      5.45607135	    154.10284171
     27.30000000	      5.45621261	    154.08946604
     27.30800000	      5.45952156	    154.07924582
     27.31700000	      5.45981290	    154.06963798
     27.32500000	      5.46066611	    154.05992544
     27.33300000	      5.46410281	    154.05279661
     27.34200000	      5.46712138	    154.04852222
     27.35000000	      5.46928678	    154.04504873
     27.35800000	      5.47238632	    154.04099102
     27.36700000	      5.47755267	    154.03789088
     27.37500000	      5.48156685	    154.03417362
     27.38300000	      5.48512550	    154.03067728
     27.39200000	      5.49007791	    154.02742979
     27.40000000	      5.49537078	    154.02104263
     27.40800000	      5.50060914	    154.01261101
     27.41700000	      5.50583717	    154.00430760
     27.42500000	      5.51127309	    153.99421560
     27.43300000	      5.51682555	    153.98409721
     27.44200000	      5.52386684	    153.97265965
     27.45000000	      5.53051666	    153.96146859
     27.45800000	      5.53785835	    153.95313479
     27.46700000	      5.54474603	    153.94347351
     27.47500000	      5.54987013	    153.93717494
     27.48300000	      5.55637594	    153.92954338
     27.49200000	      5.56218855	    153.92104494
     27.50000000	      5.56932878	    153.90966992
     27.50800000	      5.57578339	    153.89442898
     27.51700000	      5.58318649	    153.87824986
     27.52500000	      5.59053631	    153.85733940
     27.53300000	      5.59766142	    153.83369181
     27.54200000	      5.60447856	    153.81003340
     27.55000000	      5.61096095	    153.78361443
     27.55800000	      5.61563835	    153.75731350
     27.56700000	      5.62141782	    153.73567750
     27.57500000	      5.62401320	    153.71437486
     27.58300000	      5.62805467	    153.69664461
     27.59200000	      5.63273788	    153.68067927
     27.60000000	      5.63702009	    153.66941768
     27.60800000	      5.64076792	    153.65833767
     27.61700000	      5.64587415	    153.65133466
     27.62500000	      5.65090989	    153.64505515
     27.63300000	      5.65479423	    153.64355312
     27.64200000	      5.65939421	    153.64218225
     27.65000000	      5.66592679	    153.64282765
     27.65800000	      5.67036797	    153.64485426
     27.66700000	      5.67523342	    153.64989526
     27.67500000	      5.68000891	    153.65323146
     27.68300000	      5.68515661	    153.65838075
     27.69200000	      5.69122408	    153.66422287
     27.70000000	      5.69513813	    153.66769692
     27.70800000	      5.69854465	    153.67026301
     27.71700000	      5.70350668	    153.67161006
     27.72500000	      5.70723241	    153.67158595
     27.73300000	      5.71093719	    153.67037864
     27.74200000	      5.71416558	    153.66804889
     27.75000000	      5.71437224	    153.66471188
     27.75800000	      5.71825610	    153.66082292
     27.76700000	      5.71814685	    153.65746263
     27.77500000	      5.71810836	    153.65340323
     27.78300000	      5.72043561	    153.64927413
     27.79200000	      5.72191098	    153.64502018
     27.80000000	      5.72358691	    153.64093581
     27.80800000	      5.72599938	    153.63609155
     27.81700000	      5.72717594	    153.63192902
     27.82500000	      5.73110206	    153.62616356
     27.83300000	      5.73491254	    153.62405966
     27.84200000	      5.73964665	    153.62005691
     27.85000000	      5.74324220	    153.61767855
     27.85800000	      5.74691465	    153.61779022
     27.86700000	      5.75106048	    153.61827912
     27.87500000	      5.75423295	    153.61826726
     27.88300000	      5.75969605	    153.62021449
     27.89200000	      5.76277798	    153.62044493
     27.90000000	      5.76585749	    153.62033352
     27.90800000	      5.76958619	    153.61852033
     27.91700000	      5.77077358	    153.61509524
     27.92500000	      5.77029743	    153.61044646
     27.93300000	      5.77118885	    153.60462068
     27.94200000	      5.76976295	    153.59937841
     27.95000000	      5.76801363	    153.59105012
     27.95800000	      5.76434703	    153.58489201
     27.96700000	      5.76217535	    153.57727897
     27.97500000	      5.75920551	    153.57191001
